<?xml version="1.0" ?><svg enable-background="new 0 0 24 24" id="Layer_1" version="1.1" viewBox="0 0 24 24" xml:space="preserve" xmlns="http://www.w3.org/2000/svg" xmlns:xlink="http://www.w3.org/1999/xlink"><g><path d="M18.5,7H17V5.9494019C18.1397095,5.7171021,19,4.7072144,19,3.5C19,2.121582,17.878418,1,16.5,1   c-0.5263672,0-1.0239258,0.1621094-1.4389648,0.4584961C14.5283203,0.5727539,13.5600586,0,12.5,0   c-0.6977539,0-1.3706055,0.2490234-1.9057617,0.6958008C9.9926758,0.2441406,9.2646484,0,8.5,0   C7.1289063,0,5.909668,0.7963867,5.3413086,2.0229492C3.5107422,1.777832,2,3.2333984,2,5   c0,1.3019409,0.838501,2.4015503,2,2.8156738V18.050293c0,1.1987305-0.2832031,2.3984375-0.8193359,3.4702148   C3.0625,21.7573242,3,22.0224609,3,22.2866211C3,23.2314453,3.7685547,24,4.7133789,24h11.5732422   C17.2314453,24,18,23.2314453,18,22.2866211c0-0.2641602-0.0625-0.5292969-0.1806641-0.7666016   C17.4251709,20.7324219,17.1705933,19.875,17.0618896,19H18.5c1.9296875,0,3.5-1.5703125,3.5-3.5v-5   C22,8.5703125,20.4296875,7,18.5,7z M19,10.5v5c0,0.2758789-0.2241211,0.5-0.5,0.5H17v-6h1.5C18.7758789,10,19,10.2241211,19,10.5z    M7.1970215,7H15v11.050293C15,19.4057617,15.2875977,20.7617188,15.8354492,22H5.1782227   C5.7241211,20.7119141,6,19.3857422,6,18.050293V7.8047485C6.4580078,7.6387939,6.8660889,7.3657837,7.1970215,7z M3,5   c0-1.1030273,0.8969727-2,2-2c0.1567383,0,0.3227539,0.0253906,0.5219727,0.0795898   c0.2612305,0.0717773,0.5273438-0.0756836,0.6079102-0.3310547C6.4624023,1.7026367,7.4145508,1,8.5,1   c0.6645508,0,1.2905273,0.2587891,1.7626953,0.7285156c0.0986328,0.0976563,0.2392578,0.1586914,0.371582,0.1450195   c0.1386719-0.0048828,0.269043-0.0678711,0.359375-0.1728516C11.3779297,1.2553711,11.9272461,1,12.5,1   c0.8823242,0,1.6689453,0.5986328,1.9130859,1.4555664c0.0522461,0.1831055,0.2045898,0.3208008,0.3920898,0.3549805   c0.1918945,0.0351563,0.3789063-0.0419922,0.4912109-0.1953125C15.5844727,2.2241211,16.0234375,2,16.5,2   C17.3271484,2,18,2.6728516,18,3.5S17.3271484,5,16.5,5h-4.9485474c-0.0128174-0.1546021-0.0881958-0.3019409-0.2311401-0.3881836   c-0.2373047-0.1430664-0.5444336-0.0668945-0.6865234,0.1699219C9.9819336,5.8657227,8.6142578,6.3291016,7.4077148,5.7368164   c-0.2397461-0.1176758-0.53125-0.0244141-0.6591797,0.2104492C6.3955078,6.5966797,5.7255859,7,5,7C3.8969727,7,3,6.1030273,3,5z" fill="#303C42"/><path d="M7.5,20C7.7763672,20,8,19.7763672,8,19.5v-10C8,9.2236328,7.7763672,9,7.5,9S7,9.2236328,7,9.5v10   C7,19.7763672,7.2236328,20,7.5,20z" fill="#303C42"/><path d="M10.5,20c0.2763672,0,0.5-0.2236328,0.5-0.5v-10C11,9.2236328,10.7763672,9,10.5,9S10,9.2236328,10,9.5v10   C10,19.7763672,10.2236328,20,10.5,20z" fill="#303C42"/><path d="M13.5,20c0.2763672,0,0.5-0.2236328,0.5-0.5v-10C14,9.2236328,13.7763672,9,13.5,9S13,9.2236328,13,9.5v10   C13,19.7763672,13.2236328,20,13.5,20z" fill="#303C42"/></g><g/><g/><g/><g/><g/><g/><g/><g/><g/><g/><g/><g/><g/><g/><g/></svg>